<?xml version="1.0" encoding="UTF-8"?>
<svg id="Layer_2" data-name="Layer 2" xmlns="http://www.w3.org/2000/svg" viewBox="0 0 236.75 192.88">
  <defs>
    <style>
      .cls-1 {
        fill: #12153f;
      }

      .cls-1, .cls-2 {
        stroke-width: 0px;
      }

      .cls-2 {
        fill: #8c78ff;
      }
    </style>
  </defs>
  <g id="PRINT">
    <g id="CUSTOM-group">
      <g>
        <path class="cls-2" d="m94.57,117.01h0c-2.01-.71-3.8-1.87-5.31-3.44l-12.64-15.46c-.9-1.09-1.68-2.32-2.32-3.65l-11.4-23.92-10.09-3.58-21.58,60.9,78.13,27.69,21.58-60.9-21.35-7.57,3.04,14.55c.71,5.5-1.15,10.12-4.87,13.1-3.71,2.98-8.76,3.85-13.19,2.28Z"/>
        <path class="cls-1" d="m170.26,79.49l-75.3-26.69,11.13,23.34,32.21,11.42c2.38.84,3.63,3.45,2.78,5.84l-24.64,69.51c-.84,2.38-3.45,3.63-5.84,2.78l-86.75-30.75c-2.38-.84-3.63-3.45-2.78-5.84l24.64-69.51c.84-2.38,3.45-3.63,5.84-2.78l5.79,2.05-10.96-22.99c-6.32-.89-12.63,2.75-14.84,9L.79,131.62c-2.53,7.13,1.22,14.98,8.34,17.51l121.22,42.97c7.13,2.53,14.98-1.22,17.51-8.34l30.75-86.75c2.53-7.13-1.22-14.98-8.34-17.51Zm-36.58,89.53c-.84,2.38-3.45,3.63-5.84,2.78-2.38-.84-3.63-3.45-2.78-5.84l6.31-17.81c.84-2.38,3.45-3.63,5.84-2.78s3.63,3.45,2.78,5.84l-6.31,17.81Zm3.8-38.1c.84-2.38,3.46-3.62,5.84-2.78,2.38.84,3.62,3.46,2.78,5.84-.84,2.38-3.46,3.62-5.84,2.78-2.38-.84-3.62-3.46-2.78-5.84Zm14.73-14.18c-.84,2.38-3.45,3.63-5.84,2.78-2.38-.84-3.63-3.45-2.78-5.84l6.11-17.23c.84-2.38,3.45-3.63,5.84-2.78,2.38.84,3.63,3.45,2.78,5.84l-6.11,17.23Z"/>
        <path class="cls-1" d="m99.75,84.69c-.15-.71-.38-1.41-.7-2.06l-25.1-52.66-16.51,7.87,25.1,52.66c.31.66.7,1.28,1.16,1.84l12.13,14.89c3.05,3.17,8.37.63,7.83-3.73l-3.93-18.81Z"/>
        <path class="cls-2" d="m49.97.89c-4.56,2.17-6.49,7.63-4.32,12.19l7.87,16.51,16.51-7.87-7.87-16.51c-2.17-4.56-7.63-6.49-12.19-4.32Z"/>
      </g>
    </g>
    <g id="CUSTOM-group-2" data-name="CUSTOM-group">
      <path class="cls-2" d="m213.69,118.96c-.38,0-.77-.05-1.16-.16l-14.9-4.05c-2.35-.64-3.74-3.07-3.1-5.42.64-2.35,3.06-3.74,5.42-3.1l14.9,4.05c2.35.64,5.81,3.07,5.17,5.42-.53,1.97-4.39,3.26-6.33,3.26Z"/>
      <path class="cls-2" d="m194.36,76.97c-1.33,0-2.64-.6-3.51-1.73-1.48-1.94-1.11-4.71.83-6.19l14.58-11.15c1.94-1.48,4.71-1.11,6.19.83,1.48,1.94,1.11,4.71-.83,6.19l-14.58,11.15c-.8.61-1.74.91-2.68.91Z"/>
      <path class="cls-2" d="m199.39,94.09c-2.2,0-4.11-1.65-4.38-3.89-.29-2.42,1.43-4.62,5.93-4.91l32.93-3.97c.35-.29,2.55,1.43,2.84,3.86.29,2.42-1.43,4.62-3.86,4.91l-32.93,3.97c-.18.02-.36.03-.53.03Z"/>
    </g>
  </g>
</svg>